# xmcd CD database file
#
# Track frame offsets:
#	150
#	18062
#	39045
#	55762
#	73362
#	92140
#	106715
#	127237
#	146062
#	162812
#	186012
#	205040
#
# Disc length: 3168 seconds
#
# Revision: 3
# Processed by: cddbd v1.5.2PL0 Copyright (c) Steve Scherf et al.
# Submitted via: CDex 1.70beta3
#
DISCID=9d0c5e0c
DTITLE=宮本文昭 - 鳥の歌-Ｓｏｎｇ ｏｆ ｔｈｅ Ｂｉｒｄｓ-
DYEAR=1988
DGENRE=New Age
TTITLE0=オンブラ・マイ・フ
TTITLE1=ボカリース
TTITLE2=回転木馬
TTITLE3=ハバネラ
TTITLE4=ウィンズ・フロム・オリエント
TTITLE5=サンバ・カプリチオーソ
TTITLE6=グリーン・スリーブス
TTITLE7=エレジー
TTITLE8=ブーレ・アンティーク
TTITLE9=ミスティ・ブリーズ
TTITLE10=ノクターン
TTITLE11=鳥の歌
EXTD=YEAR: 1988
EXTT0=
EXTT1=
EXTT2=
EXTT3=
EXTT4=
EXTT5=
EXTT6=
EXTT7=
EXTT8=
EXTT9=
EXTT10=
EXTT11=
PLAYORDER=
